<svg width="426" height="47" viewBox="0 0 426 47" fill="none" xmlns="http://www.w3.org/2000/svg">
<path d="M3.752 13.776V46.272H8.984V13.776H3.752ZM13.88 28.56V43.776H19.016V28.56H13.88ZM16.184 28.56V31.776H27.032V38.928H16.184V42.096H32.072V28.56H16.184ZM6.536 13.776V17.136H16.568V23.424H6.536V26.736H21.752V13.776H6.536ZM6.584 18.72V21.792H18.056V18.72H6.584ZM16.184 33.744V36.864H29.336V33.744H16.184ZM27.752 18.72V21.792H39.512V18.72H27.752ZM38.84 13.776H24.584V26.736H38.84V23.424H29.768V17.136H38.84V13.776ZM37.544 13.776V40.464C37.544 41.136 37.304 41.328 36.584 41.376C35.864 41.376 33.416 41.424 31.256 41.28C31.928 42.672 32.648 44.832 32.84 46.272C36.392 46.32 38.936 46.224 40.664 45.408C42.392 44.592 42.92 43.2 42.92 40.512V13.776H37.544ZM7.16 4.656V8.976H22.28V4.656H7.16ZM26.456 4.656V8.976H44.888V4.656H26.456ZM7.352 0.863997C5.864 4.464 3.176 8.112 0.248 10.464C1.544 11.184 3.848 12.672 4.952 13.584C7.784 10.896 10.856 6.576 12.728 2.304L7.352 0.863997ZM26.984 0.863997C25.544 4.512 22.76 8.112 19.64 10.416C21.032 10.992 23.48 12.288 24.68 13.104C27.56 10.56 30.68 6.432 32.456 2.208L26.984 0.863997ZM8.936 8.256C9.992 9.888 11.144 12.096 11.576 13.488L16.568 12.096C16.04 10.656 14.792 8.544 13.688 7.008L8.936 8.256ZM30.44 8.256C31.784 9.888 33.224 12.144 33.848 13.584L38.984 12.144C38.264 10.656 36.68 8.448 35.336 6.912L30.44 8.256ZM67.88 12.336V46.32H73.832V12.336H67.88ZM59.144 21.984H83V25.248H59.144V21.984ZM59.144 14.304H83V17.568H59.144V14.304ZM53.528 9.648V29.952H88.904V9.648H53.528ZM49.256 33.072V38.4H92.792V33.072H49.256ZM53.576 3.696C55.304 5.856 57.272 8.832 58.088 10.752L63.368 8.208C62.408 6.288 60.296 3.456 58.52 1.488L53.576 3.696ZM65.336 3.024C66.92 5.328 68.648 8.448 69.272 10.416L74.744 8.256C73.976 6.24 72.104 3.264 70.52 1.056L65.336 3.024ZM83.192 1.248C82.136 3.936 80.168 7.536 78.44 9.936L83.576 11.664C85.304 9.552 87.56 6.288 89.624 3.12L83.192 1.248ZM96.824 20.16V26.448H141.272V20.16H96.824ZM184.04 1.44C178.568 3.072 169.88 4.368 162.152 5.04C162.728 6.336 163.448 8.448 163.64 9.792C171.56 9.216 180.872 8.016 187.688 6.096L184.04 1.44ZM161.384 15.6V21.024H189.608V15.6H161.384ZM162.872 27.792V46.32H168.44V33.024H181.688V46.128H187.496V27.792H162.872ZM166.376 39.408V44.592H183.992V39.408H166.376ZM172.328 6.24V30.48H177.896V6.24H172.328ZM144.248 25.632L145.64 31.152C150.104 29.952 155.768 28.416 161 26.928L160.376 21.6C154.568 23.184 148.376 24.72 144.248 25.632ZM144.824 10.368V15.744H160.52V10.368H144.824ZM150.2 1.248V40.032C150.2 40.752 149.96 40.944 149.336 40.992C148.76 40.992 146.792 40.992 144.968 40.944C145.64 42.432 146.408 44.784 146.552 46.272C149.816 46.272 152.024 46.128 153.608 45.216C155.144 44.352 155.672 42.912 155.672 40.08V1.248H150.2ZM228.392 2.592L224.552 4.176C225.848 6 227.336 8.88 228.344 10.8L232.184 9.168C231.272 7.392 229.592 4.368 228.392 2.592ZM234.056 0.431997L230.264 1.968C231.56 3.792 233.096 6.576 234.104 8.592L237.944 6.96C237.08 5.28 235.304 2.208 234.056 0.431997ZM210.392 20.688L206.168 25.056C211.784 28.608 220.856 35.28 225.08 39.216L229.64 33.792C225.224 30.24 216.296 24.096 210.392 20.688ZM233 12.528L228.104 9.504C227.048 9.84 225.416 10.08 223.928 10.08H210.296L208.04 15.504H224.312C223.4 19.248 220.424 24.72 217.16 28.56C213.08 33.36 207.32 38.4 197.288 41.52L202.856 46.32C212.024 42.864 218.216 37.488 222.728 31.872C227 26.544 229.928 20.4 231.416 15.984C231.848 14.784 232.472 13.44 233 12.528ZM217.112 5.136L210.2 2.976C209.768 4.608 208.712 6.816 207.992 8.016C205.592 12.144 201.128 18.768 192.728 23.952L197.912 27.936C204.776 23.184 210.92 15.84 214.184 10.032C214.76 9.024 215.96 6.816 217.112 5.136ZM241.976 23.376L244.952 29.424C252.536 27.168 260.312 23.568 265.736 20.352C271.4 16.944 277.256 12.432 281.624 8.016L276.44 3.12C273.32 6.912 267.848 11.712 262.952 14.736C257.576 18.048 250.568 21.168 241.976 23.376ZM261.944 17.856V37.872C261.944 39.984 261.752 43.008 261.56 44.16H269.192C268.856 42.96 268.76 39.984 268.76 37.872V16.224L261.944 17.856ZM302.683 2.832L295.675 4.464C296.203 5.376 296.635 6.528 297.259 8.64C298.939 14.352 304.507 35.616 305.803 40.272C306.283 41.904 306.619 43.824 306.907 45.12L314.011 43.44C313.579 42.24 312.811 39.984 312.523 38.928C311.035 34.032 305.851 14.88 303.643 7.104C303.163 5.568 302.875 4.08 302.683 2.832ZM330.619 11.568L326.251 8.4C325.483 8.736 324.379 9.12 323.371 9.312C319.339 10.224 296.299 14.544 293.227 15.072C291.355 15.36 289.675 15.552 287.851 15.696L289.483 22.176C294.187 21.072 318.283 16.128 321.355 15.648C319.819 18.288 315.979 23.328 312.379 26.304L318.571 29.232C322.555 24.864 328.411 16.464 330.619 11.568ZM344.251 5.184V11.424C345.643 11.28 347.659 11.232 349.243 11.232C352.075 11.232 364.939 11.232 367.579 11.232C369.355 11.232 371.611 11.328 372.859 11.424V5.184C371.563 5.376 369.211 5.472 367.675 5.472C364.891 5.472 352.267 5.472 349.243 5.472C347.611 5.472 345.547 5.376 344.251 5.184ZM376.939 19.152L372.667 16.464C371.995 16.8 370.699 16.992 369.115 16.992C365.851 16.992 348.667 16.992 345.403 16.992C343.867 16.992 341.851 16.848 339.787 16.656V22.896C341.803 22.752 344.203 22.704 345.403 22.704C349.675 22.704 366.139 22.704 368.539 22.704C367.723 25.344 366.187 28.368 363.643 30.96C359.947 34.752 354.235 37.872 346.987 39.408L351.787 44.832C357.931 43.056 364.075 39.84 368.923 34.416C372.475 30.48 374.539 25.776 376.027 21.12C376.171 20.64 376.603 19.776 376.939 19.152ZM385.915 19.776V27.36C387.739 27.216 390.955 27.072 393.643 27.072C399.307 27.072 415.099 27.072 419.467 27.072C421.483 27.072 423.931 27.312 425.083 27.36V19.776C423.787 19.872 421.675 20.112 419.419 20.112C415.147 20.112 399.307 20.112 393.643 20.112C391.147 20.112 387.691 19.92 385.915 19.776Z" fill="white"/>
</svg>
